<?xml version="1.0" encoding="utf-8"?>
<!-- Generator: Adobe Illustrator 22.0.0, SVG Export Plug-In . SVG Version: 6.00 Build 0)  -->
<svg version="1.1" id="Layer_1" xmlns="http://www.w3.org/2000/svg" xmlns:xlink="http://www.w3.org/1999/xlink" x="0px" y="0px"
	 viewBox="0 0 363.8 107.8" style="enable-background:new 0 0 363.8 107.8;" xml:space="preserve">
<style type="text/css">
	.st0{fill:#33C3F1;}
	.st1{fill:#FFFFFF;}
</style>
<g id="_x30_f9cIs.tif">
	<g>
		<path class="st0" d="M36.5,36.2c-6.9,8.9-8.2,18.8-3.8,29c4.4,10.5,12.7,16.4,24.1,17.6c5.9,0.6,11.5-0.4,16.7-3.4
			c1.8-1,2.7-0.7,4,0.6c4,4,7.9,8.1,12.1,12c1.8,1.7,1.9,2.6-0.3,4.2c-17.8,12.6-42.6,12.5-60.2-0.5C10.5,82,3.1,58.5,10.7,36.9
			C18.2,15.5,38.8,1.5,61.7,2.3c30,1.1,53,28.6,49,58.3c-1.2,8.6-4.3,16.4-9.2,23.5c-1.2,1.7-2,2-3.5,0.3c-4-4.2-8.1-8.2-12.3-12.2
			c-1.6-1.6-1.6-2.6-0.6-4.5c6.5-12,3.8-26.6-6.4-35.6s-25.1-9.7-36.1-2c-0.3,0.3-0.6,0.6-0.9,0.8C40,32.7,38.3,34.5,36.5,36.2z"/>
		<path class="st0" d="M59.5,33.9c11.1-0.1,20.4,9.1,20.3,20.2c-0.1,11-9.4,20.3-20.5,20.2c-10.9-0.1-20-9.1-20.1-20.1
			C39.1,43.1,48.3,33.9,59.5,33.9z"/>
	</g>
</g>
<g>
	<path class="st1" d="M144.9,44l-2.8,2.9c-2.1-2.2-4.5-3.2-7.2-3.2c-1.4,0-2.6,0.3-3.5,1c-0.9,0.6-1.4,1.5-1.4,2.7
		c0,1,0.4,1.7,1.1,2.3c0.7,0.6,1.9,1.2,3.7,2l2.7,1.1c2.7,1.2,4.7,2.4,5.9,3.7c1.2,1.3,1.8,3,1.8,5c0,2.7-1,4.8-3,6.3
		c-2,1.5-4.4,2.2-7.3,2.2c-4.8,0-8.6-1.9-11.4-5.7l2.9-3.1c2.8,3,5.6,4.5,8.4,4.5c1.6,0,2.9-0.4,4-1.1c1.1-0.7,1.6-1.7,1.6-3
		c0-1.2-0.4-2-1.2-2.7s-2.1-1.3-3.9-2l-2.8-1.2c-2.4-1-4.3-2.2-5.5-3.4c-1.2-1.2-1.8-2.8-1.8-4.7c0-2.6,0.9-4.6,2.8-6
		c1.9-1.4,4.2-2.2,7-2.2C139.1,39.4,142.4,40.9,144.9,44z"/>
	<path class="st1" d="M175.5,64.3c-2.8,3.8-6.7,5.6-11.8,5.6c-3.4,0-6.2-0.8-8.4-2.4c-2.2-1.6-3.3-3.7-3.3-6.4c0-1.6,0.4-3,1.3-4.3
		s2-2.3,3.6-3c-2.4-1.4-3.5-3.6-3.5-6.5c0-2.5,1-4.4,2.8-5.9c1.9-1.4,4.4-2.1,7.5-2.1c5,0,8.7,1.7,11.2,5.1l-3.1,2.8
		c-2-2.4-4.6-3.6-7.9-3.6c-3.9,0-5.8,1.4-5.8,4.1c0,1.2,0.4,2.2,1.3,2.9c0.9,0.7,2.1,1.1,3.8,1.1h5.5v4.1h-5.3
		c-2.1,0-3.7,0.4-4.9,1.3s-1.7,2-1.7,3.4c0,1.6,0.6,2.8,1.8,3.7c1.2,0.9,2.9,1.4,5.2,1.4c3.6,0,6.5-1.4,8.6-4.1L175.5,64.3z"/>
	<path class="st1" d="M215,65.4v3.9c-1.2,0.3-2.3,0.4-3.2,0.4c-3.4,0-5.4-1.7-6.1-5.1c-1.1,1.7-2.7,3-4.6,3.9
		c-1.9,0.9-4,1.4-6.3,1.4c-4.1,0-7.5-1.5-10.2-4.4c-2.7-2.9-4-6.6-4-10.9c0-4.3,1.3-7.9,4-10.9s6.1-4.4,10.2-4.4
		c2.4,0,4.5,0.5,6.5,1.5c2,1,3.5,2.4,4.6,4.2c0-0.7,0.1-2.4,0.3-5h4.4c-0.4,6-0.6,10.7-0.6,13.9v7.3c0,2.8,1.1,4.3,3.2,4.3
		C213.6,65.6,214.2,65.5,215,65.4z M202.6,62.8c2-1.9,2.9-4.6,2.9-8.1c0-3.5-1-6.2-2.9-8.2c-1.9-1.9-4.3-2.9-7.1-2.9
		c-2.9,0-5.3,1-7.2,3.1c-1.9,2.1-2.9,4.7-2.9,7.9c0,3.2,1,5.8,2.9,7.9c1.9,2.1,4.3,3.1,7.2,3.1C198.2,65.7,200.6,64.7,202.6,62.8z"
		/>
	<path class="st1" d="M236.9,40.1v4.1h-1.7c-2.5,0-4.7,0.8-6.5,2.3c-1.8,1.5-2.7,3.6-2.7,6.3v16.6h-4.6V40.1h4.3v4.2
		c2.2-3,5.2-4.4,9.1-4.4C235.4,39.8,236.1,39.9,236.9,40.1z"/>
	<path class="st1" d="M267.8,45.8l-3.3,2.6c-2.4-3.2-5.3-4.7-8.7-4.7c-3,0-5.6,1.1-7.6,3.2c-2,2.1-3,4.7-3,7.8c0,3.1,1,5.7,3,7.9
		c2,2.1,4.5,3.2,7.6,3.2c3.4,0,6.3-1.6,8.6-4.7l3.3,2.6c-2.8,4.2-6.8,6.4-12,6.4c-4.3,0-7.9-1.5-10.9-4.4c-3-3-4.4-6.6-4.4-10.9
		c0-4.2,1.5-7.8,4.4-10.8s6.6-4.4,10.9-4.4C260.9,39.4,264.9,41.5,267.8,45.8z"/>
	<path class="st1" d="M296.9,42.6c1.9,2.1,2.9,4.9,2.9,8.3v18.4h-4.6V51.5c0-2.4-0.7-4.3-2-5.7s-3.1-2.2-5.3-2.2s-4.1,0.7-5.5,2.2
		c-1.4,1.5-2.2,3.4-2.2,5.6v17.8h-4.6v-45h4.6v19.1c2.1-2.6,5-4,8.8-4C292.3,39.4,295,40.5,296.9,42.6z"/>
	<path class="st1" d="M331.6,64.3c-2.8,3.8-6.7,5.6-11.8,5.6c-3.4,0-6.2-0.8-8.4-2.4c-2.2-1.6-3.3-3.7-3.3-6.4c0-1.6,0.4-3,1.3-4.3
		s2-2.3,3.6-3c-2.4-1.4-3.5-3.6-3.5-6.5c0-2.5,1-4.4,2.8-5.9c1.9-1.4,4.4-2.1,7.5-2.1c5,0,8.7,1.7,11.2,5.1l-3.1,2.8
		c-2-2.4-4.6-3.6-7.9-3.6c-3.9,0-5.8,1.4-5.8,4.1c0,1.2,0.4,2.2,1.3,2.9c0.9,0.7,2.1,1.1,3.8,1.1h5.5v4.1h-5.3
		c-2.1,0-3.7,0.4-4.9,1.3s-1.7,2-1.7,3.4c0,1.6,0.6,2.8,1.8,3.7c1.2,0.9,2.9,1.4,5.2,1.4c3.6,0,6.5-1.4,8.6-4.1L331.6,64.3z"/>
	<path class="st1" d="M355,40.1v4.1h-1.7c-2.5,0-4.7,0.8-6.5,2.3c-1.8,1.5-2.7,3.6-2.7,6.3v16.6h-4.6V40.1h4.3v4.2
		c2.2-3,5.2-4.4,9.1-4.4C353.4,39.8,354.2,39.9,355,40.1z"/>
</g>
</svg>
